<?xml version="1.0" encoding="utf-8"?>
<!-- Generator: Adobe Illustrator 27.4.1, SVG Export Plug-In . SVG Version: 6.00 Build 0)  -->
<svg version="1.1" id="图层_1" xmlns="http://www.w3.org/2000/svg" xmlns:xlink="http://www.w3.org/1999/xlink" x="0px" y="0px"
	 viewBox="0 0 110 100" style="enable-background:new 0 0 110 100;" xml:space="preserve">
<style type="text/css">
	.st0{fill:url(#SVGID_1_);}
	.st1{fill:url(#SVGID_00000117672049069059131170000006489700161360145025_);}
	.st2{opacity:0.93;fill:#FFFFFF;enable-background:new    ;}
	.st3{opacity:0.69;fill:#FFFFFF;enable-background:new    ;}
	.st4{opacity:0.52;fill:#FFFFFF;enable-background:new    ;}
	.st5{fill:url(#SVGID_00000042715226189045397670000014065731068287232698_);}
	.st6{fill:url(#SVGID_00000155134910108998030780000002243148374102204310_);}
	.st7{opacity:0.85;fill:#FFF8E1;enable-background:new    ;}
	.st8{opacity:0.54;fill:#FFF9B0;enable-background:new    ;}
</style>
<g>
	<g>
		
			<linearGradient id="SVGID_1_" gradientUnits="userSpaceOnUse" x1="13.5872" y1="-0.4026" x2="15.2394" y2="1.2497" gradientTransform="matrix(56 0 0 53.5 -747 28.999)">
			<stop  offset="0" style="stop-color:#B6DBFF"/>
			<stop  offset="0.8" style="stop-color:#D0C8FB"/>
			<stop  offset="1" style="stop-color:#C0B5DF"/>
		</linearGradient>
		<path class="st0" d="M12.2,35.5C12.2,17.8,27.6,9,58.5,9s46.3,8.8,46.3,26.4v29.7c0,11.1-4.5,16.5-13.2,16.5H70L55.2,96.6
			c-1,1.2-2.1,1.2-3.3,0V81.7H25.4c-8.8,0-13.2-5.5-13.2-16.5V35.5z"/>
	</g>
</g>
<g>
	<g>
		
			<linearGradient id="SVGID_00000111192088885761834530000007426311433653330822_" gradientUnits="userSpaceOnUse" x1="13.5522" y1="-0.4391" x2="15.2045" y2="1.2131" gradientTransform="matrix(56 0 0 53.5 -750 25.999)">
			<stop  offset="0" style="stop-color:#39A2FF"/>
			<stop  offset="0.8" style="stop-color:#7B5DF7"/>
			<stop  offset="1" style="stop-color:#4B2BB5"/>
		</linearGradient>
		<path style="fill:url(#SVGID_00000111192088885761834530000007426311433653330822_);" d="M7.3,30.5c0-17.7,15.4-26.4,46.3-26.4
			s46.3,8.8,46.3,26.4v29.7c0,11.1-4.5,16.5-13.2,16.5H65.1L50.2,91.7c-1,1.2-2.1,1.2-3.3,0V76.8H20.5c-8.8,0-13.2-5.5-13.2-16.5
			V30.5z"/>
	</g>
	<path class="st2" d="M30.4,32.2h46.3c1.8,0,3.3,1.5,3.3,3.3l0,0c0,1.8-1.5,3.3-3.3,3.3H30.4c-1.8,0-3.3-1.5-3.3-3.3l0,0
		C27.1,33.7,28.6,32.2,30.4,32.2z"/>
	<path class="st3" d="M29.6,43.7h29.7c1.3,0,2.5,1.2,2.5,2.5l0,0c0,1.3-1.2,2.5-2.5,2.5H29.6c-1.3,0-2.5-1.2-2.5-2.5l0,0
		C27.1,44.9,28.2,43.7,29.6,43.7z"/>
	<path class="st4" d="M29.1,52.8h17.5c1.2,0,2,0.8,2,2l0,0c0,1.2-0.8,2-2,2H29.1c-1.2,0-2-0.8-2-2l0,0
		C27.1,53.7,27.9,52.8,29.1,52.8z"/>
</g>
<g>
	<g transform="translate(70,29) scale(0.9)">
		
			<linearGradient id="SVGID_00000168085566342550611090000015391223795496724128_" gradientUnits="userSpaceOnUse" x1="-146.6572" y1="-10.1106" x2="-146.6572" y2="-8.4584" gradientTransform="matrix(12.96 0 0 16.2 1922.7555 132.4444)">
			<stop  offset="0" style="stop-color:#FFF9D7"/>
			<stop  offset="0.6" style="stop-color:#FFD600"/>
			<stop  offset="1" style="stop-color:#FFB733"/>
		</linearGradient>
		<polygon style="fill:url(#SVGID_00000168085566342550611090000015391223795496724128_);" points="22.1,-31.3 24.6,-18.1 
			35.3,-14.8 24.6,-11.5 22.1,1.7 19.6,-11.5 8.9,-14.8 19.6,-18.1 		"/>
		
			<linearGradient id="SVGID_00000114761319837781824280000008592291179314649989_" gradientUnits="userSpaceOnUse" x1="-138.0092" y1="-10.1732" x2="-138.0092" y2="-8.521" gradientTransform="matrix(0.7128 0 0 15.39 120.4516 126.0444)">
			<stop  offset="0" style="stop-color:#FFFFFF;stop-opacity:0.85"/>
			<stop  offset="0.7" style="stop-color:#FFFFFF;stop-opacity:0.27"/>
			<stop  offset="1" style="stop-color:#FFFFFF;stop-opacity:0"/>
		</linearGradient>
		<path style="fill:url(#SVGID_00000114761319837781824280000008592291179314649989_);" d="M22.1-30.5L22.1-30.5
			c0.3,0,0.7,0.3,0.7,0.7V0.2c0,0.3-0.3,0.7-0.7,0.7l0,0c-0.3,0-0.7-0.3-0.7-0.7v-30.1C21.4-30.2,21.7-30.5,22.1-30.5z"/>
		<ellipse class="st7" cx="35.5" cy="-24.2" rx="1.2" ry="1.7"/>
		<ellipse class="st8" cx="27.5" cy="-2.4" rx="0.8" ry="1.3"/>
	</g>
</g>
</svg>
